<?xml version="1.0" encoding="UTF-8" standalone="no"?>
<!DOCTYPE svg PUBLIC "-//W3C//DTD SVG 1.1//EN" "http://www.w3.org/Graphics/SVG/1.1/DTD/svg11.dtd">
<svg width="100%" height="100%" viewBox="0 0 64 64" version="1.1" xmlns="http://www.w3.org/2000/svg" xmlns:xlink="http://www.w3.org/1999/xlink" xml:space="preserve" xmlns:serif="http://www.serif.com/" style="fill-rule:evenodd;clip-rule:evenodd;stroke-linecap:round;stroke-linejoin:round;">
    <g id="Klyte" transform="matrix(0.666667,0,0,0.666667,32,32)">
        <g transform="matrix(1,0,0,1,-48,-48)">
            <g id="XTM" transform="matrix(0.894635,0,0,0.894635,5.0575,5.0575)">
                <g id="XTM-bg" serif:id="XTM bg" transform="matrix(1.11777,0,0,1.11777,-5.8767,-5.8767)">
                    <path d="M88.2,48.2C88.2,70.143 70.143,88.2 48.2,88.2C26.257,88.2 8.2,70.143 8.2,48.2C8.2,26.257 26.257,8.2 48.2,8.2C70.143,8.2 88.2,26.257 88.2,48.2L88.2,48.2Z" style="fill:rgb(205,205,205);fill-rule:nonzero;stroke:rgb(11,0,97);stroke-width:8px;"/>
                </g>
                <g id="XTM-txt" serif:id="XTM txt" transform="matrix(1.01738,0,0,1.11451,11.3555,-6.22417)">
                    <g transform="matrix(71.1,0,0,71.1,53.6198,71.0106)">
                    </g>
                    <text x="18.417px" y="71.011px" style="font-family:'Calibri-Bold', 'Calibri', sans-serif;font-weight:700;font-size:71.1px;fill:rgb(11,0,97);stroke:rgb(41,30,64);stroke-width:0.94px;stroke-linecap:butt;stroke-miterlimit:2;">T</text>
                </g>
            </g>
        </g>
    </g>
</svg>
